# Blender v2.92.0 OBJ File: ''
# www.blender.org
mtllib MainRotor.mtl
o Propeller_1
v 0.016230 -0.095037 0.001507
v 0.016230 -0.095037 0.139353
v -0.052693 -0.095037 0.120885
v 0.016230 -0.017959 0.139353
v -0.052693 -0.017959 0.120885
v 0.135608 -0.095037 -0.067416
v 0.154076 -0.095037 0.001507
v -0.103148 -0.095037 0.070430
v -0.103148 -0.017959 0.070430
v 0.135608 -0.017959 -0.067416
v 0.154076 -0.017959 0.001507
v -0.121616 -0.095037 0.001507
v -0.121616 -0.017959 0.001507
v 0.135608 -0.095037 0.070430
v -0.103148 -0.095037 -0.067416
v -0.103148 -0.017959 -0.067416
v 0.135608 -0.017959 0.070430
v -0.052693 -0.095037 -0.117871
v -0.052693 -0.017959 -0.117871
v 0.085153 -0.095037 0.120885
v 0.016230 -0.095037 -0.136339
v 0.016230 -0.017959 -0.136339
v 0.085153 -0.017959 0.120885
v 0.085153 -0.095037 -0.117871
v 0.085153 -0.017959 -0.117871
v 0.016230 -0.010761 0.106683
v -0.036358 -0.010761 0.092592
v 0.068818 -0.010761 0.092592
v -0.074855 -0.010761 0.054095
v 0.107316 -0.010761 0.054095
v -0.088946 -0.010761 0.001507
v 0.121407 -0.010761 0.001507
v -0.074855 -0.010761 -0.051081
v 0.107316 -0.010761 -0.051081
v -0.036358 -0.010761 -0.089579
v 0.068818 -0.010761 -0.089579
v 0.016230 -0.010761 -0.103670
v -0.795938 -0.000591 3.067219
v -0.795938 0.006489 3.067219
v -0.858620 0.006489 3.050423
v -0.858620 -0.000591 3.050423
v 0.068818 0.016659 0.092592
v 0.016230 0.016659 0.106683
v -0.036358 0.016659 0.092592
v -0.074855 0.016659 0.054095
v 0.107316 0.016659 0.054095
v -0.088946 0.016659 0.001507
v 3.084303 -0.000591 0.766526
v 3.084303 0.006489 0.766526
v 3.062786 0.006489 0.846831
v 3.062786 -0.000591 0.846831
v -3.082735 0.001063 -0.829637
v -3.082735 0.004834 -0.829637
v -3.076108 0.004834 -0.854367
v -3.076108 0.001063 -0.854367
v 0.107316 0.016659 -0.051081
v 0.121407 0.016659 0.001507
v -0.074855 0.016659 -0.051081
v -0.036358 0.016659 -0.089579
v 0.068818 0.016659 -0.089579
v 0.016230 0.016659 -0.103670
v 0.796672 0.001776 -3.100771
v 0.796672 0.004121 -3.100771
v 0.846132 0.004121 -3.087518
v 0.846132 0.001776 -3.087518
v 0.016230 0.023387 0.147176
v -0.056605 0.023387 0.127660
v 0.089065 0.023387 0.127660
v -0.109923 0.023387 0.074342
v 0.142384 0.023387 0.074342
v -0.129439 0.023387 0.001507
v 0.161900 0.023387 0.001507
v -0.109923 0.023387 -0.071328
v 0.142384 0.023387 -0.071328
v -0.056605 0.023387 -0.124647
v 0.089065 0.023387 -0.124647
v 0.016230 0.023387 -0.144163
v 0.016230 0.072030 0.133046
v -0.049540 0.072030 0.115424
v 0.082000 0.072030 0.115423
v -0.097686 0.072030 0.067277
v 0.130147 0.072030 0.067277
v -0.115309 0.072030 0.001507
v 0.147770 0.072030 0.001507
v -0.097687 0.072030 -0.064263
v 0.130147 0.072030 -0.064263
v -0.049540 0.072030 -0.112410
v 0.082000 0.072030 -0.112410
v 0.016230 0.072030 -0.130033
v 0.016230 0.095832 0.040837
v -0.003435 0.095832 0.035568
v 0.035895 0.095832 0.035568
v -0.017831 0.095832 0.021172
v 0.050291 0.095832 0.021172
v -0.023100 0.095832 0.001507
v 0.055560 0.095832 0.001507
v -0.017831 0.095832 -0.018158
v 0.050291 0.095832 -0.018158
v -0.003435 0.095832 -0.032554
v 0.035895 0.095832 -0.032554
v 0.016230 0.095832 -0.037823
v -3.587600 -0.147016 -0.004030
v -0.165232 -0.019264 0.868584
v -0.273300 -0.019264 0.845757
v -0.273300 0.025162 0.845757
v -0.165232 0.025162 0.868584
v 0.894734 -0.008107 0.184177
v 0.878334 -0.008107 0.277908
v 0.878334 0.014005 0.277908
v 0.894734 0.014005 0.184177
v -0.963514 -0.007296 -0.224245
v -0.957308 -0.007296 -0.304346
v -0.957308 0.013193 -0.304346
v -0.963514 0.013193 -0.224245
v 0.151476 -0.008134 -0.728145
v 0.259993 -0.008134 -0.721337
v 0.259993 0.014032 -0.721337
v 0.151476 0.014032 -0.728145
vt 0.867521 -0.964846
vt 0.878053 -0.964846
vt 0.876642 -0.970112
vt 0.094477 -0.262760
vt 0.094477 -0.307766
vt 0.090726 -0.307766
vt 0.090726 -0.262760
vt 0.862255 -0.955726
vt 0.867521 -0.954315
vt 0.872787 -0.973967
vt 0.086976 -0.307766
vt 0.086976 -0.262760
vt 0.064472 -0.262760
vt 0.064472 -0.307766
vt 0.060722 -0.307766
vt 0.060722 -0.262760
vt 0.867521 -0.975378
vt 0.083225 -0.307766
vt 0.083225 -0.262760
vt 0.872787 -0.955726
vt 0.862255 -0.973967
vt 0.079474 -0.307766
vt 0.079474 -0.262760
vt 0.056971 -0.307766
vt 0.056971 -0.262760
vt 0.858400 -0.970112
vt 0.075724 -0.307766
vt 0.075724 -0.262760
vt 0.876642 -0.959581
vt 0.856989 -0.964846
vt 0.071973 -0.307766
vt 0.071973 -0.262760
vt 0.053221 -0.307766
vt 0.053221 -0.262760
vt 0.858400 -0.959581
vt 0.068223 -0.307766
vt 0.068223 -0.262760
vt 0.049470 -0.307766
vt 0.049470 -0.262760
vt 0.049470 -0.307766
vt 0.049470 -0.262760
vt 0.094477 -0.262760
vt 0.094477 -0.307766
vt 0.049470 -0.307766
vt 0.049470 -0.262760
vt 0.094477 -0.262760
vt 0.094477 -0.307766
vt 0.049470 -0.307766
vt 0.049470 -0.262760
vt 0.094477 -0.262760
vt 0.094477 -0.307766
vt 0.049470 -0.307766
vt 0.049470 -0.262760
vt 0.094477 -0.262760
vt 0.094477 -0.307766
vt 0.049470 -0.307766
vt 0.049470 -0.262760
vt 0.094477 -0.262760
vt 0.094477 -0.307766
vt 0.049470 -0.307766
vt 0.049470 -0.262760
vt 0.094477 -0.262760
vt 0.094477 -0.307766
vt 0.049470 -0.307766
vt 0.049470 -0.262760
vt 0.094477 -0.262760
vt 0.094477 -0.307766
vt 0.049470 -0.307766
vt 0.049470 -0.262760
vt 0.094477 -0.262760
vt 0.094477 -0.307766
vt 0.049470 -0.307766
vt 0.049470 -0.262760
vt 0.094477 -0.262760
vt 0.094477 -0.307766
vt 0.049470 -0.307766
vt 0.049470 -0.262760
vt 0.094477 -0.262760
vt 0.094477 -0.307766
vt 0.049470 -0.307766
vt 0.049470 -0.262760
vt 0.094477 -0.262760
vt 0.094477 -0.307766
vt 0.049470 -0.307766
vt 0.049470 -0.262760
vt 0.094477 -0.262760
vt 0.878053 -0.975378
vt 0.856989 -0.975378
vt 0.856989 -0.954315
vt 0.878053 -0.954315
vt 0.878053 -0.975378
vt 0.856989 -0.975378
vt 0.856989 -0.954315
vt 0.878053 -0.954315
vt 0.878053 -0.975378
vt 0.856989 -0.975378
vt 0.856989 -0.954315
vt 0.878053 -0.954315
vt 0.878053 -0.975378
vt 0.856989 -0.975378
vt 0.856989 -0.954315
vt 0.878053 -0.954315
vt 0.878053 -0.975378
vt 0.856989 -0.975378
vt 0.856989 -0.954315
vt 0.878053 -0.954315
vt 0.878053 -0.975378
vt 0.856989 -0.975378
vt 0.856989 -0.954315
vt 0.878053 -0.954315
vt 0.878053 -0.975378
vt 0.856989 -0.975378
vt 0.856989 -0.954315
vt 0.878053 -0.954315
vt 0.878053 -0.975378
vt 0.856989 -0.975378
vt 0.856989 -0.954315
vt 0.878053 -0.954315
vt 0.878053 -0.975378
vt 0.856989 -0.975378
vt 0.856989 -0.954315
vt 0.878053 -0.954315
vt 0.878053 -0.975378
vt 0.856989 -0.975378
vt 0.856989 -0.954315
vt 0.878053 -0.954315
vt 0.878053 -0.975378
vt 0.856989 -0.975378
vt 0.856989 -0.954315
vt 0.878053 -0.954315
vt 0.878053 -0.975378
vt 0.856989 -0.975378
vt 0.856989 -0.954315
vt 0.878053 -0.954315
vt 0.878053 -0.975378
vt 0.856989 -0.975378
vt 0.856989 -0.954315
vt 0.878053 -0.954315
vt 0.878053 -0.975378
vt 0.856989 -0.975378
vt 0.856989 -0.954315
vt 0.878053 -0.954315
vt 0.878053 -0.975378
vt 0.856989 -0.975378
vt 0.856989 -0.954315
vt 0.878053 -0.954315
vt 0.878053 -0.975378
vt 0.856989 -0.975378
vt 0.856989 -0.954315
vt 0.878053 -0.954315
vt 0.878053 -0.975378
vt 0.856989 -0.975378
vt 0.856989 -0.954315
vt 0.878053 -0.954315
vt 0.878053 -0.975378
vt 0.856989 -0.975378
vt 0.856989 -0.954315
vt 0.878053 -0.954315
vt 0.878053 -0.975378
vt 0.856989 -0.975378
vt 0.856989 -0.954315
vt 0.878053 -0.954315
vt 0.878053 -0.975378
vt 0.856989 -0.975378
vt 0.856989 -0.954315
vt 0.878053 -0.954315
vt 0.103477 -0.301766
vt 0.058470 -0.301766
vt 0.058470 -0.256760
vt 0.103477 -0.256760
vt 0.103477 -0.301766
vt 0.058470 -0.301766
vt 0.058470 -0.256760
vt 0.103477 -0.256760
vt 0.103477 -0.301766
vt 0.058470 -0.301766
vt 0.058470 -0.256760
vt 0.103477 -0.256760
vt 0.103477 -0.301766
vt 0.058470 -0.301766
vt 0.058470 -0.256760
vt 0.103477 -0.256760
vt 0.103477 -0.301766
vt 0.058470 -0.301766
vt 0.058470 -0.256760
vt 0.103477 -0.256760
vt 0.103477 -0.301766
vt 0.058470 -0.301766
vt 0.058470 -0.256760
vt 0.103477 -0.256760
vt 0.103477 -0.301766
vt 0.058470 -0.301766
vt 0.058470 -0.256760
vt 0.103477 -0.256760
vt 0.103477 -0.301766
vt 0.058470 -0.301766
vt 0.058470 -0.256760
vt 0.103477 -0.256760
vt 0.103477 -0.301766
vt 0.058470 -0.301766
vt 0.058470 -0.256760
vt 0.103477 -0.256760
vt 0.103477 -0.301766
vt 0.058470 -0.301766
vt 0.058470 -0.256760
vt 0.103477 -0.256760
vt 0.103477 -0.301766
vt 0.058470 -0.301766
vt 0.058470 -0.256760
vt 0.103477 -0.256760
vt 0.103477 -0.301766
vt 0.058470 -0.301766
vt 0.058470 -0.256760
vt 0.103477 -0.256760
vt 0.103477 -0.301766
vt 0.058470 -0.301766
vt 0.058470 -0.256760
vt 0.103477 -0.256760
vt 0.103477 -0.301766
vt 0.058470 -0.301766
vt 0.058470 -0.256760
vt 0.103477 -0.256760
vt 0.103477 -0.301766
vt 0.058470 -0.301766
vt 0.058470 -0.256760
vt 0.103477 -0.256760
vt 0.103477 -0.301766
vt 0.058470 -0.301766
vt 0.058470 -0.256760
vt 0.103477 -0.256760
vt 0.103477 -0.301766
vt 0.058470 -0.301766
vt 0.058470 -0.256760
vt 0.103477 -0.256760
vt 0.103477 -0.301766
vt 0.058470 -0.301766
vt 0.058470 -0.256760
vt 0.103477 -0.256760
vt 0.103477 -0.301766
vt 0.058470 -0.301766
vt 0.058470 -0.256760
vt 0.103477 -0.256760
vt 0.103477 -0.301766
vt 0.058470 -0.301766
vt 0.058470 -0.256760
vt 0.103477 -0.256760
vt 0.103477 -0.301766
vt 0.058470 -0.301766
vt 0.058470 -0.256760
vt 0.103477 -0.256760
vt 0.103477 -0.301766
vt 0.058470 -0.301766
vt 0.058470 -0.256760
vt 0.103477 -0.256760
vt 0.103477 -0.301766
vt 0.058470 -0.301766
vt 0.058470 -0.256760
vt 0.103477 -0.256760
vt 0.103477 -0.301766
vt 0.058470 -0.301766
vt 0.058470 -0.256760
vt 0.103477 -0.256760
vt 0.061485 -0.290515
vt 0.069722 -0.298751
vt 0.080973 -0.301766
vt 0.058470 -0.279263
vt 0.080973 -0.301766
vt 0.092225 -0.298751
vt 0.100462 -0.290515
vt 0.066987 -0.250000
vt 0.080973 -0.301766
vt 0.100462 -0.290515
vt 0.100462 -0.268011
vt 0.092225 -0.259774
vt 0.878053 -0.975378
vt 0.856989 -0.975378
vt 0.856989 -0.954315
vt 0.878053 -0.954315
vt 0.878053 -0.975378
vt 0.856989 -0.975378
vt 0.856989 -0.954315
vt 0.878053 -0.954315
vt 0.878053 -0.975378
vt 0.856989 -0.975378
vt 0.856989 -0.954315
vt 0.878053 -0.954315
vt 0.878053 -0.975378
vt 0.856989 -0.975378
vt 0.856989 -0.954315
vt 0.878053 -0.954315
vt 0.875876 -0.960954
vt 0.875876 -0.960954
vt 0.864355 -0.960954
vt 0.875876 -0.960954
vt 0.872661 -0.975378
vt 0.872661 -0.954315
vt 0.881085 -0.971166
vt 0.865413 -0.971166
vt 0.865413 -0.950103
vt 0.865413 -0.950103
vt 0.856989 -0.954315
vt 0.856989 -0.954315
vt 0.878053 -0.954315
vt 0.878053 -0.954315
vt 0.872556 -0.975378
vt 0.856989 -0.975378
vt 0.856989 -0.954315
vt 0.872556 -0.954315
vt 0.872556 -0.975378
vt 0.872556 -0.954315
vt 0.872556 -0.975378
vt 0.872556 -0.954315
vt 0.872556 -0.975378
vt 0.856989 -0.954315
vt 0.872556 -0.954315
vt 0.878053 -0.975378
vt 0.871879 -0.975378
vt 0.871879 -0.954315
vt 0.878053 -0.954315
vt 0.871879 -0.975378
vt 0.871879 -0.954315
vt 0.871879 -0.975378
vt 0.856989 -0.975378
vt 0.856989 -0.954315
vt 0.871879 -0.954315
vt 0.871879 -0.975378
vt 0.856989 -0.954315
vt 0.871879 -0.954315
vt 0.873639 -0.975378
vt 0.856989 -0.975378
vt 0.856989 -0.954315
vt 0.873639 -0.954315
vt 0.873639 -0.975378
vt 0.873639 -0.954315
vt 0.873639 -0.975378
vt 0.873639 -0.954315
vt 0.873639 -0.975378
vt 0.856989 -0.954315
vt 0.873639 -0.954315
vt 0.856989 -0.954315
vt 0.872661 -0.954315
vt 0.856989 -0.975378
vt 0.865413 -0.950103
vt 0.886477 -0.971166
vt 0.856989 -0.975378
vt 0.856989 -0.954315
vt 0.856989 -0.975378
vt 0.878053 -0.954315
vt 0.878053 -0.975378
vt 0.856989 -0.975378
vt 0.856989 -0.975378
vt 0.856989 -0.954315
vt 0.878053 -0.954315
vt 0.878053 -0.975378
vt 0.856989 -0.975378
vt 0.856989 -0.975378
vt 0.856989 -0.954315
vn -0.0000 -1.0000 0.0000
vn -0.2588 0.0000 0.9659
vn -0.7071 0.0000 0.7071
vn 0.9659 -0.0000 -0.2588
vn -0.9659 0.0000 0.2588
vn -0.9659 -0.0000 -0.2588
vn 0.9659 0.0000 0.2588
vn -0.7071 -0.0000 -0.7071
vn -0.2588 -0.0000 -0.9659
vn 0.7071 0.0000 0.7071
vn 0.2588 -0.0000 -0.9659
vn 0.7071 -0.0000 -0.7071
vn 0.2588 0.0000 0.9659
vn -0.0576 0.9750 0.2148
vn 0.0576 0.9750 0.2148
vn -0.1573 0.9750 0.1573
vn 0.1573 0.9750 0.1573
vn -0.2148 0.9750 0.0576
vn 0.2148 0.9750 0.0576
vn -0.2148 0.9750 -0.0576
vn 0.2148 0.9750 -0.0576
vn -0.1573 0.9750 -0.1573
vn 0.1573 0.9750 -0.1573
vn -0.0576 0.9750 -0.2148
vn 0.0576 0.9750 -0.2148
vn -0.0439 -0.9855 0.1637
vn 0.0439 -0.9855 0.1637
vn -0.1199 -0.9855 0.1199
vn 0.1199 -0.9855 0.1199
vn -0.1637 -0.9855 0.0439
vn 0.1637 -0.9855 0.0439
vn -0.1637 -0.9855 -0.0439
vn 0.1637 -0.9855 -0.0439
vn -0.1199 -0.9855 -0.1199
vn 0.1199 -0.9855 -0.1199
vn -0.0439 -0.9855 -0.1637
vn 0.0439 -0.9855 -0.1637
vn -0.2492 0.2701 0.9300
vn 0.2492 0.2701 0.9300
vn -0.6808 0.2701 0.6808
vn 0.6808 0.2701 0.6808
vn -0.9300 0.2701 0.2492
vn 0.9300 0.2701 0.2492
vn -0.9300 0.2701 -0.2492
vn 0.9300 0.2701 -0.2492
vn -0.6808 0.2701 -0.6808
vn 0.6808 0.2701 -0.6808
vn -0.2492 0.2701 -0.9300
vn 0.2492 0.2701 -0.9300
vn -0.0668 0.9661 0.2494
vn 0.0668 0.9661 0.2494
vn -0.1826 0.9661 0.1826
vn 0.1826 0.9661 0.1826
vn -0.2494 0.9661 0.0668
vn 0.2494 0.9661 0.0668
vn -0.2494 0.9661 -0.0668
vn 0.2494 0.9661 -0.0668
vn -0.1826 0.9661 -0.1826
vn 0.1826 0.9661 -0.1826
vn -0.0668 0.9661 -0.2494
vn 0.0668 0.9661 -0.2494
vn -0.0000 1.0000 -0.0000
vn 0.0024 -0.9999 -0.0106
vn -0.9539 0.0000 -0.3001
vn -0.0018 1.0000 0.0080
vn 0.9612 0.0000 0.2757
vn 0.0033 -1.0000 0.0007
vn -0.2788 0.0000 0.9604
vn 0.0033 1.0000 0.0007
vn 0.2570 0.0000 -0.9664
vn -0.0038 -1.0000 -0.0006
vn 0.2759 0.0000 -0.9612
vn -0.0038 1.0000 -0.0005
vn -0.2747 0.0000 0.9615
vn 0.0005 -1.0000 -0.0040
vn 0.9571 0.0000 0.2896
vn 0.0005 1.0000 -0.0040
vn -0.9650 0.0000 -0.2624
vn -0.0018 -1.0000 0.0080
vn -0.9665 0.0000 -0.2566
vn 0.0024 0.9999 -0.0106
vn 0.9728 0.0000 0.2317
vn -0.0038 -1.0000 -0.0005
vn 0.2513 0.0000 -0.9679
vn -0.0038 1.0000 -0.0006
vn -0.2499 0.0000 0.9683
vn 0.9707 0.0000 0.2404
vn -0.9773 0.0000 -0.2117
vn -0.2520 0.0000 0.9677
vn 0.2299 -0.0000 -0.9732
usemtl mainProprller
s off
f 1/1/1 2/2/1 3/3/1
f 2/4/2 4/5/2 5/6/2 3/7/2
f 1/1/1 6/8/1 7/9/1
f 1/1/1 3/3/1 8/10/1
f 3/7/3 5/6/3 9/11/3 8/12/3
f 6/13/4 10/14/4 11/15/4 7/16/4
f 1/1/1 8/10/1 12/17/1
f 8/12/5 9/11/5 13/18/5 12/19/5
f 1/1/1 7/9/1 14/20/1
f 1/1/1 12/17/1 15/21/1
f 12/19/6 13/18/6 16/22/6 15/23/6
f 7/16/7 11/15/7 17/24/7 14/25/7
f 1/1/1 15/21/1 18/26/1
f 15/23/8 16/22/8 19/27/8 18/28/8
f 1/1/1 14/20/1 20/29/1
f 1/1/1 18/26/1 21/30/1
f 18/28/9 19/27/9 22/31/9 21/32/9
f 14/25/10 17/24/10 23/33/10 20/34/10
f 1/1/1 21/30/1 24/35/1
f 21/32/11 22/31/11 25/36/11 24/37/11
f 1/1/1 20/29/1 2/2/1
f 1/1/1 24/35/1 6/8/1
f 24/37/12 25/36/12 10/14/12 6/13/12
f 20/34/13 23/33/13 4/38/13 2/39/13
f 4/5/14 26/40/14 27/41/14 5/42/14
f 23/43/15 28/44/15 26/45/15 4/46/15
f 5/47/16 27/48/16 29/49/16 9/50/16
f 17/51/17 30/52/17 28/53/17 23/54/17
f 9/55/18 29/56/18 31/57/18 13/58/18
f 11/59/19 32/60/19 30/61/19 17/62/19
f 13/63/20 31/64/20 33/65/20 16/66/20
f 10/67/21 34/68/21 32/69/21 11/70/21
f 16/71/22 33/72/22 35/73/22 19/74/22
f 25/75/23 36/76/23 34/77/23 10/78/23
f 19/79/24 35/80/24 37/81/24 22/82/24
f 22/83/25 37/84/25 36/85/25 25/86/25
f 28/87/13 42/88/13 43/89/13 26/90/13
f 27/91/3 44/92/3 45/93/3 29/94/3
f 30/95/10 46/96/10 42/97/10 28/98/10
f 29/99/5 45/100/5 47/101/5 31/102/5
f 34/103/4 56/104/4 57/105/4 32/106/4
f 33/107/8 58/108/8 59/109/8 35/110/8
f 36/111/12 60/112/12 56/113/12 34/114/12
f 35/115/9 59/116/9 61/117/9 37/118/9
f 43/119/26 66/120/26 67/121/26 44/122/26
f 42/123/27 68/124/27 66/125/27 43/126/27
f 44/127/28 67/128/28 69/129/28 45/130/28
f 46/131/29 70/132/29 68/133/29 42/134/29
f 45/135/30 69/136/30 71/137/30 47/138/30
f 57/139/31 72/140/31 70/141/31 46/142/31
f 47/143/32 71/144/32 73/145/32 58/146/32
f 56/147/33 74/148/33 72/149/33 57/150/33
f 58/151/34 73/152/34 75/153/34 59/154/34
f 60/155/35 76/156/35 74/157/35 56/158/35
f 59/159/36 75/160/36 77/161/36 61/162/36
f 61/163/37 77/164/37 76/165/37 60/166/37
f 66/167/38 78/168/38 79/169/38 67/170/38
f 68/171/39 80/172/39 78/173/39 66/174/39
f 67/175/40 79/176/40 81/177/40 69/178/40
f 70/179/41 82/180/41 80/181/41 68/182/41
f 69/183/42 81/184/42 83/185/42 71/186/42
f 72/187/43 84/188/43 82/189/43 70/190/43
f 71/191/44 83/192/44 85/193/44 73/194/44
f 74/195/45 86/196/45 84/197/45 72/198/45
f 73/199/46 85/200/46 87/201/46 75/202/46
f 76/203/47 88/204/47 86/205/47 74/206/47
f 75/207/48 87/208/48 89/209/48 77/210/48
f 77/211/49 89/212/49 88/213/49 76/214/49
f 78/215/50 90/216/50 91/217/50 79/218/50
f 80/219/51 92/220/51 90/221/51 78/222/51
f 79/223/52 91/224/52 93/225/52 81/226/52
f 82/227/53 94/228/53 92/229/53 80/230/53
f 81/231/54 93/232/54 95/233/54 83/234/54
f 84/235/55 96/236/55 94/237/55 82/238/55
f 83/239/56 95/240/56 97/241/56 85/242/56
f 86/243/57 98/244/57 96/245/57 84/246/57
f 85/247/58 97/248/58 99/249/58 87/250/58
f 88/251/59 100/252/59 98/253/59 86/254/59
f 87/255/60 99/256/60 101/257/60 89/258/60
f 89/259/61 101/260/61 100/261/61 88/262/61
f 92/263/62 94/264/62 96/265/62 98/266/62 100/267/62 101/268/62 99/269/62 97/270/62 95/271/62 93/272/62 91/273/62 90/274/62
usemtl Материал
f 38/275/2 39/276/2 40/277/2 41/278/2
f 48/279/7 49/280/7 50/281/7 51/282/7
f 52/283/6 53/284/6 54/285/6 55/286/6
f 62/287/11 63/288/11 64/289/11 65/290/11
f 26/291/63 103/292/63 104/293/63 27/294/63
f 27/91/64 104/295/64 105/296/64 44/122/64
f 105/297/65 40/298/65 39/299/65 106/300/65
f 106/301/66 39/302/66 38/303/66 103/304/66
f 107/305/67 48/306/67 51/307/67 108/308/67
f 30/95/68 108/309/68 109/310/68 46/142/68
f 46/131/69 109/311/69 110/312/69 57/150/69
f 110/313/70 49/280/70 48/314/70 107/315/70
f 31/316/71 111/317/71 112/318/71 33/319/71
f 33/107/72 112/320/72 113/321/72 58/146/72
f 113/322/73 54/323/73 53/324/73 114/325/73
f 114/326/74 53/284/74 52/327/74 111/328/74
f 115/329/75 62/330/75 65/331/75 116/332/75
f 36/111/76 116/333/76 117/334/76 60/166/76
f 60/155/77 117/335/77 118/336/77 61/162/77
f 118/337/78 63/288/78 62/338/78 115/339/78
f 103/304/79 38/303/79 41/340/79 104/341/79
f 104/295/80 41/342/80 40/277/80 105/296/80
f 106/300/81 43/343/81 44/344/81 105/297/81
f 103/304/82 26/90/82 43/89/82 106/301/82
f 111/317/83 52/345/83 55/346/83 112/318/83
f 112/320/84 55/347/84 54/285/84 113/321/84
f 114/325/85 47/138/85 58/151/85 113/322/85
f 111/328/86 31/102/86 47/143/86 114/326/86
f 116/332/75 36/348/75 37/349/75 115/329/75
f 116/333/87 65/350/87 64/289/87 117/334/87
f 117/335/77 64/351/77 63/352/77 118/336/77
f 115/339/88 37/118/88 61/163/88 118/337/88
f 108/308/67 30/353/67 32/354/67 107/305/67
f 108/309/89 51/355/89 50/281/89 109/310/89
f 109/311/69 50/356/69 49/357/69 110/312/69
f 107/315/90 32/106/90 57/139/90 110/313/90
