# Blender v2.92.0 OBJ File: 'copter.blend'
# www.blender.org
mtllib propellerB.mtl
o propeller_prop_Цилиндр.001
v 1.153589 0.108605 0.156415
v 1.153589 0.137126 0.156415
v 0.868655 0.133607 -0.127259
v 0.868655 0.112124 -0.127259
v -1.155625 0.108605 -0.167188
v -1.155625 0.137126 -0.167188
v -0.870692 0.133607 0.116486
v -0.870692 0.112124 0.116486
v -0.162820 0.108604 1.149220
v -0.162820 0.137125 1.149220
v 0.120854 0.133606 0.864287
v 0.120854 0.112123 0.864287
v 0.160783 0.108605 -1.159993
v 0.160783 0.137126 -1.159993
v -0.122891 0.133607 -0.875060
v -0.122891 0.112124 -0.875060
v -0.002368 0.167160 -0.236561
v -0.001018 0.446469 -0.005386
v -0.160977 0.167160 -0.170863
v -0.226674 0.167160 -0.012255
v -0.160977 0.167160 0.146353
v -0.002368 0.167160 0.212051
v 0.156240 0.167160 0.146353
v 0.221938 0.167160 -0.012255
v 0.156240 0.167160 -0.170863
v -0.001018 -0.100683 -0.286669
v -0.199915 -0.100683 -0.204283
v -0.282300 -0.100683 -0.005386
v -0.199915 -0.100683 0.193510
v -0.001018 -0.100683 0.275896
v 0.197879 -0.100683 0.193510
v 0.280264 -0.100683 -0.005386
v 0.197879 -0.100683 -0.204283
v 0.134686 0.134826 0.163056
v 0.134572 0.110915 0.168853
v 0.141511 0.135428 -0.182967
v 0.141604 0.110295 -0.187683
v -0.136463 0.134803 -0.187003
v -0.136375 0.110936 -0.191455
v -0.143330 0.135409 0.161165
v -0.143446 0.110313 0.167047
v -0.002089 0.111768 -0.246924
v -0.002089 0.111761 0.225256
v -0.002201 0.133963 0.219964
v -0.002201 0.133956 -0.242773
v 0.175338 0.134812 -0.140934
v 0.180326 0.110928 -0.140836
v -0.176751 0.135425 -0.147879
v -0.181662 0.110298 -0.147976
v -0.174722 0.134817 0.130214
v -0.179981 0.110923 0.130111
v 0.173067 0.110310 0.137075
v 0.167381 0.135412 0.136962
v -0.238192 0.111704 -0.010833
v 0.233988 0.111825 -0.010836
v 0.229182 0.133893 -0.011402
v -0.233556 0.134027 -0.011405
vt 0.000000 0.000000
vt 0.000000 0.000000
vt 0.000000 0.000000
vt 0.000000 0.000000
vt 0.000000 0.000000
vt 0.000000 0.000000
vt 0.000000 0.000000
vt 0.000000 0.000000
vt 0.000000 0.000000
vt 0.000000 0.000000
vt 0.000000 0.000000
vt 0.000000 0.000000
vt 0.000000 0.000000
vt 0.000000 0.000000
vt 0.000000 0.000000
vt 0.000000 0.000000
vt 0.000000 0.000000
vt 0.000000 0.000000
vt 0.000000 0.000000
vt 0.000000 0.000000
vt 0.000000 0.000000
vt 0.000000 0.000000
vt 0.000000 0.000000
vt 0.000000 0.000000
vt 0.000000 0.000000
vt 0.000000 0.000000
vt 0.000000 0.000000
vt 0.000000 0.000000
vt 0.000000 0.000000
vt 0.000000 0.000000
vt 0.000000 0.000000
vt 0.000000 0.000000
vt 0.000000 0.000000
vt 0.000000 0.000000
vt 0.000000 0.000000
vt 0.000000 0.000000
vt 0.000000 0.000000
vt 0.000000 0.000000
vt 0.000000 0.000000
vt 0.000000 0.000000
vt 1.000000 0.750000
vt 0.875000 0.750000
vt 0.875000 1.000000
vt 0.750000 0.750000
vt 0.750000 1.000000
vt 0.625000 0.750000
vt 0.625000 1.000000
vt 0.500000 0.750000
vt 0.500000 1.000000
vt 0.375000 0.750000
vt 0.375000 1.000000
vt 0.250000 0.750000
vt 0.250000 1.000000
vt 0.125000 0.750000
vt 0.125000 1.000000
vt 0.000000 0.750000
vt 0.000000 1.000000
vt 0.750000 0.490000
vt 0.580294 0.419706
vt 0.510000 0.250000
vt 0.580294 0.080294
vt 0.750000 0.010000
vt 0.919706 0.080294
vt 0.990000 0.250000
vt 0.919706 0.419706
vt 0.375000 0.000000
vt 0.375000 0.250000
vt 0.625000 0.250000
vt 0.625000 0.000000
vt 0.375000 0.500000
vt 0.375000 0.750000
vt 0.625000 0.750000
vt 0.625000 0.500000
vt 0.375000 0.000000
vt 0.375000 0.250000
vt 0.625000 0.250000
vt 0.625000 0.000000
vt 0.375000 0.500000
vt 0.375000 0.750000
vt 0.625000 0.750000
vt 0.625000 0.500000
vt 0.375000 0.335887
vt 0.625000 0.336603
vt 0.625000 0.379337
vt 0.375000 0.379919
vt 0.375000 0.834426
vt 0.625000 0.834975
vt 0.625000 0.877975
vt 0.375000 0.878701
vt 0.375000 1.000000
vt 0.625000 1.000000
vt 0.254919 0.500000
vt 0.280569 0.630247
vt 0.290574 0.750000
vt 0.125000 0.750000
vt 0.246299 0.750000
vt 0.221075 0.621872
vt 0.210887 0.500000
vt 0.125000 0.500000
vt 0.875000 0.500000
vt 0.788397 0.500000
vt 0.778244 0.622067
vt 0.752974 0.750000
vt 0.875000 0.750000
vt 0.709975 0.750000
vt 0.719940 0.630273
vt 0.745663 0.500000
vt 0.375000 0.335009
vt 0.625000 0.335625
vt 0.625000 0.379108
vt 0.375000 0.379715
vt 0.375000 0.835303
vt 0.625000 0.835953
vt 0.625000 1.000000
vt 0.625000 0.878203
vt 0.375000 0.878905
vt 0.375000 1.000000
vt 0.254715 0.500000
vt 0.279194 0.624309
vt 0.289697 0.750000
vt 0.125000 0.500000
vt 0.125000 0.750000
vt 0.246095 0.750000
vt 0.219700 0.615932
vt 0.210009 0.500000
vt 0.789375 0.500000
vt 0.779766 0.615509
vt 0.753203 0.750000
vt 0.875000 0.750000
vt 0.875000 0.500000
vt 0.710953 0.750000
vt 0.721463 0.623712
vt 0.745892 0.500000
vn -0.9089 0.1791 -0.3765
vn 0.9040 0.2065 0.3744
vn 0.3736 0.2169 0.9019
vn 0.9074 0.1880 -0.3759
vn -0.9056 0.1977 0.3751
vn -0.3772 0.1685 -0.9107
vn 0.3770 0.1722 -0.9101
vn -0.9057 0.1977 0.3751
vn -0.3739 0.2133 0.9026
vn 0.9040 0.2064 0.3745
vn 0.9040 0.2064 0.3744
vn -0.3037 0.6084 -0.7333
vn -0.7370 0.6030 -0.3053
vn -0.7437 0.5933 0.3081
vn -0.3104 0.5849 0.7494
vn 0.3109 0.5829 0.7507
vn 0.7469 0.5886 0.3094
vn 0.7402 0.5984 -0.3066
vn 0.3043 0.6065 -0.7346
vn 0.0000 -1.0000 -0.0000
vn 0.7055 0.0000 -0.7087
vn -0.7055 -0.0000 0.7087
vn 0.7087 0.0000 0.7055
vn -0.7087 0.0000 -0.7055
vn 0.9998 0.0000 0.0197
vn -0.9998 -0.0000 -0.0197
vn -0.0075 -1.0000 0.0009
vn 0.0074 -1.0000 -0.0009
vn 0.0074 1.0000 -0.0009
vn -0.0075 1.0000 0.0009
vn 0.0197 0.0000 -0.9998
vn -0.0197 0.0000 0.9998
vn 0.0008 -1.0000 0.0075
vn -0.0009 -1.0000 -0.0075
vn -0.0009 1.0000 -0.0075
vn 0.0008 1.0000 0.0074
usemtl Base
s off
f 49/1/1 27/2/1 28/3/1
f 23/4/2 53/5/2 24/6/2
f 22/7/3 34/8/3 23/4/3
f 19/9/1 27/2/1 49/1/1
f 25/10/4 47/11/4 33/12/4
f 21/13/5 20/14/5 50/15/5
f 42/16/6 26/17/6 39/18/6
f 38/19/6 17/20/6 45/21/6
f 38/19/6 19/9/6 17/20/6
f 19/9/6 39/18/6 27/2/6
f 19/9/6 38/19/6 39/18/6
f 39/18/6 26/17/6 27/2/6
f 42/16/7 37/22/7 26/17/7
f 20/14/1 19/9/1 48/23/1
f 36/24/7 45/21/7 17/20/7
f 36/24/7 17/20/7 25/10/7
f 25/10/7 33/12/7 37/22/7
f 25/10/7 37/22/7 36/24/7
f 37/22/7 33/12/7 26/17/7
f 48/23/1 19/9/1 49/1/1
f 54/25/1 49/1/1 28/3/1
f 20/14/1 48/23/1 57/26/1
f 28/3/5 51/27/5 54/25/5
f 29/28/5 51/27/5 28/3/5
f 50/15/8 51/27/8 21/13/8
f 50/15/5 20/14/5 57/26/5
f 21/13/5 51/27/5 29/28/5
f 22/7/9 21/13/9 40/29/9
f 29/28/9 41/30/9 21/13/9
f 22/7/9 40/29/9 44/31/9
f 30/32/9 43/33/9 41/30/9
f 29/28/9 30/32/9 41/30/9
f 31/34/3 23/4/3 35/35/3
f 41/30/9 40/29/9 21/13/9
f 22/7/3 44/31/3 34/8/3
f 47/11/4 32/36/4 33/12/4
f 31/34/3 35/35/3 30/32/3
f 35/35/3 23/4/3 34/8/3
f 30/32/3 35/35/3 43/33/3
f 32/36/2 55/37/2 52/38/2
f 31/34/2 32/36/2 52/38/2
f 52/38/10 53/5/10 23/4/10
f 31/34/2 52/38/2 23/4/2
f 53/5/11 56/39/11 24/6/11
f 24/6/4 46/40/4 25/10/4
f 46/40/4 47/11/4 25/10/4
f 24/6/4 56/39/4 46/40/4
f 55/37/4 32/36/4 47/11/4
s 1
f 17/41/12 19/42/12 18/43/12
f 19/42/13 20/44/13 18/45/13
f 20/44/14 21/46/14 18/47/14
f 21/46/15 22/48/15 18/49/15
f 22/48/16 23/50/16 18/51/16
f 23/50/17 24/52/17 18/53/17
f 24/52/18 25/54/18 18/55/18
f 25/54/19 17/56/19 18/57/19
f 26/58/20 33/59/20 32/60/20 31/61/20 30/62/20 29/63/20 28/64/20 27/65/20
usemtl Blades
f 1/66/21 4/67/21 3/68/21 2/69/21
f 5/70/22 8/71/22 7/72/22 6/73/22
f 9/74/23 12/75/23 11/76/23 10/77/23
f 13/78/24 16/79/24 15/80/24 14/81/24
f 11/76/25 12/75/25 35/82/25 34/83/25
f 36/84/25 37/85/25 13/78/25 14/81/25
f 16/79/26 39/86/26 38/87/26 15/80/26
f 40/88/26 41/89/26 9/90/26 10/91/26
f 13/78/27 37/92/27 42/93/27 39/94/27 16/79/27
f 9/95/28 41/96/28 43/97/28 35/98/28 12/99/28
f 11/100/29 34/101/29 44/102/29 40/103/29 10/104/29
f 15/80/30 38/105/30 45/106/30 36/107/30 14/81/30
f 3/68/31 4/67/31 47/108/31 46/109/31
f 48/110/31 49/111/31 5/70/31 6/73/31
f 8/71/32 51/112/32 50/113/32 7/72/32
f 2/114/32 53/115/32 52/116/32 1/117/32
f 8/71/33 5/70/33 49/118/33 54/119/33 51/120/33
f 4/121/34 1/122/34 52/123/34 55/124/34 47/125/34
f 46/126/35 56/127/35 53/128/35 2/129/35 3/130/35
f 7/72/36 50/131/36 57/132/36 48/133/36 6/73/36
