# Blender v2.92.0 OBJ File: ''
# www.blender.org
mtllib TailRotor.mtl
o Propeller
v 0.020004 -0.014533 0.006684
v 0.013909 -0.014532 0.041339
v -0.014046 -0.014533 0.041339
v -0.020141 -0.014533 0.006684
v -0.020141 -0.001389 0.006684
v -0.014046 -0.001389 0.041339
v -0.014046 0.004166 0.041339
v -0.020141 0.004166 0.006684
v 0.013909 0.004166 0.041339
v 0.020004 0.004166 0.006684
v 0.019716 0.004297 0.211349
v 0.019710 -0.001257 0.211353
v 0.013909 -0.001389 0.041339
v 0.011148 -0.000187 0.277749
v 0.011148 0.002964 0.277749
v -0.011285 0.002964 0.277749
v -0.011285 -0.000187 0.277749
v 0.020004 -0.001389 0.006684
v -0.020435 -0.001212 0.211298
v -0.020429 0.004342 0.211294
v 0.011464 -0.014533 0.018187
v -0.015482 -0.014533 0.040817
v -0.036897 -0.014533 0.022848
v -0.019289 -0.014533 -0.007618
v -0.019289 -0.001389 -0.007618
v -0.036897 -0.001389 0.022848
v -0.036897 0.004166 0.022848
v -0.019289 0.004166 -0.007618
v -0.015482 0.004166 0.040817
v 0.011464 0.004166 0.018187
v -0.120312 0.004427 0.174784
v -0.120318 -0.001128 0.174788
v -0.015482 -0.001389 0.040817
v -0.169558 -0.000187 0.220142
v -0.169558 0.002964 0.220142
v -0.186742 0.002964 0.205723
v -0.186742 -0.000187 0.205723
v 0.011464 -0.001389 0.018187
v -0.151036 -0.001113 0.148942
v -0.151029 0.004442 0.148938
v -0.002473 -0.014533 0.021509
v -0.037660 -0.014533 0.021525
v -0.042515 -0.014533 -0.006006
v -0.009444 -0.014533 -0.018026
v -0.009444 -0.001389 -0.018026
v -0.042515 -0.001389 -0.006006
v -0.042515 0.004166 -0.006006
v -0.009444 0.004166 -0.018026
v -0.037660 0.004166 0.021525
v -0.002473 0.004166 0.021509
v -0.204077 0.004433 0.056765
v -0.204083 -0.001121 0.056769
v -0.037660 -0.001389 0.021525
v -0.270958 -0.000187 0.059858
v -0.270958 0.002964 0.059858
v -0.274854 0.002964 0.037766
v -0.274854 -0.000187 0.037766
v -0.002473 -0.001389 0.021509
v -0.211000 -0.001142 0.017225
v -0.210994 0.004412 0.017221
v -0.015284 -0.014533 0.015096
v -0.042250 -0.014533 -0.007510
v -0.028272 -0.014533 -0.031720
v 0.004788 -0.014533 -0.019671
v 0.004788 -0.001389 -0.019671
v -0.028272 -0.001389 -0.031720
v -0.028272 0.004166 -0.031720
v 0.004788 0.004166 -0.019671
v -0.042250 0.004166 -0.007510
v -0.015284 0.004166 0.015096
v -0.192384 0.004314 -0.087485
v -0.192390 -0.001240 -0.087481
v -0.042250 -0.001389 -0.007510
v -0.245606 -0.000187 -0.128106
v -0.245606 0.002964 -0.128106
v -0.234389 0.002964 -0.147534
v -0.234389 -0.000187 -0.147534
v -0.015284 -0.001389 0.015096
v -0.172270 -0.001288 -0.122220
v -0.172264 0.004266 -0.122224
v -0.020976 -0.014533 0.001948
v -0.027102 -0.014533 -0.032702
v -0.000832 -0.014533 -0.042264
v 0.016748 -0.014533 -0.011782
v 0.016748 -0.001389 -0.011782
v -0.000832 -0.001389 -0.042264
v -0.000832 0.004166 -0.042264
v 0.016748 0.004166 -0.011782
v -0.027102 0.004166 -0.032702
v -0.020976 0.004166 0.001948
v -0.090703 0.004125 -0.190471
v -0.090709 -0.001429 -0.190467
v -0.027102 -0.001389 -0.032702
v -0.105364 -0.000187 -0.255799
v -0.105364 0.002964 -0.255799
v -0.084284 0.002964 -0.263471
v -0.084284 -0.000187 -0.263471
v -0.020976 -0.001389 0.001948
v -0.052967 -0.001481 -0.204146
v -0.052961 0.004073 -0.204150
v -0.016885 -0.014533 -0.011782
v 0.000695 -0.014533 -0.042264
v 0.026965 -0.014533 -0.032702
v 0.020839 -0.014533 0.001948
v 0.020839 -0.001389 0.001948
v 0.026965 -0.001389 -0.032702
v 0.026965 0.004166 -0.032702
v 0.020839 0.004166 0.001948
v 0.000695 0.004166 -0.042264
v -0.016885 0.004166 -0.011782
v 0.053386 0.003954 -0.204004
v 0.053380 -0.001600 -0.204000
v 0.000695 -0.001389 -0.042264
v 0.084147 -0.000187 -0.263471
v 0.084147 0.002964 -0.263471
v 0.105227 0.002964 -0.255799
v 0.105227 -0.000187 -0.255799
v -0.016885 -0.001389 -0.011782
v 0.091085 -0.001632 -0.190218
v 0.091091 0.003923 -0.190222
v -0.004925 -0.014533 -0.019671
v 0.028135 -0.014533 -0.031720
v 0.042113 -0.014533 -0.007510
v 0.015147 -0.014533 0.015096
v 0.015147 -0.001389 0.015096
v 0.042113 -0.001389 -0.007510
v 0.042113 0.004166 -0.007510
v 0.015147 0.004166 0.015096
v 0.028135 0.004166 -0.031720
v -0.004925 0.004166 -0.019671
v 0.172464 0.003882 -0.121752
v 0.172458 -0.001672 -0.121748
v 0.028135 -0.001389 -0.031720
v 0.234252 -0.000187 -0.147534
v 0.234252 0.002964 -0.147534
v 0.245468 0.002964 -0.128106
v 0.245468 -0.000187 -0.128106
v -0.004925 -0.001389 -0.019671
v 0.192483 -0.001669 -0.086954
v 0.192489 0.003885 -0.086958
v 0.009307 -0.014533 -0.018026
v 0.042378 -0.014532 -0.006006
v 0.037523 -0.014532 0.021525
v 0.002336 -0.014533 0.021509
v 0.002336 -0.001389 0.021509
v 0.037523 -0.001389 0.021525
v 0.037523 0.004166 0.021525
v 0.002336 0.004166 0.021509
v 0.042378 0.004166 -0.006006
v 0.009307 0.004166 -0.018026
v 0.210813 0.003942 0.017799
v 0.210807 -0.001613 0.017803
v 0.042378 -0.001389 -0.006006
v 0.274716 -0.000187 0.037766
v 0.274716 0.002964 0.037766
v 0.270821 0.002964 0.059857
v 0.270821 -0.000187 0.059857
v 0.009307 -0.001389 -0.018026
v 0.203781 -0.001576 0.057328
v 0.203787 0.003979 0.057324
v 0.019152 -0.014533 -0.007618
v 0.036760 -0.014532 0.022848
v 0.015344 -0.014532 0.040817
v -0.011600 -0.014533 0.018187
v -0.011600 -0.001389 0.018187
v 0.015344 -0.001389 0.040817
v 0.015344 0.004166 0.040817
v -0.011600 0.004166 0.018187
v 0.036760 0.004166 0.022848
v 0.019152 0.004166 -0.007618
v 0.150488 0.004106 0.149351
v 0.150482 -0.001449 0.149355
v 0.036760 -0.001389 0.022848
v 0.186605 -0.000187 0.205723
v 0.186605 0.002964 0.205723
v 0.169421 0.002964 0.220142
v 0.169421 -0.000187 0.220142
v 0.019152 -0.001389 -0.007618
v 0.119694 -0.001395 0.175117
v 0.119700 0.004159 0.175113
vt 0.759000 -0.616000
vt 0.759000 -0.612435
vt 0.784000 -0.612435
vt 0.784000 -0.616000
vt 0.759000 -0.616000
vt 0.759000 -0.612435
vt 0.784000 -0.612435
vt 0.784000 -0.616000
vt 0.759000 -0.616000
vt 0.759000 -0.612435
vt 0.784000 -0.612435
vt 0.784000 -0.616000
vt 0.759000 -0.612435
vt 0.759000 -0.591000
vt 0.784000 -0.591000
vt 0.784000 -0.612435
vt 0.759000 -0.616000
vt 0.759000 -0.591000
vt 0.784000 -0.591000
vt 0.784000 -0.616000
vt 0.759000 -0.616000
vt 0.759000 -0.591000
vt 0.784000 -0.591000
vt 0.759000 -0.612435
vt 0.759000 -0.591000
vt 0.784000 -0.591000
vt 0.784000 -0.612435
vt 0.759000 -0.591000
vt 0.784000 -0.591000
vt 0.759000 -0.591000
vt 0.784000 -0.591000
vt 0.784000 -0.616000
vt 0.759000 -0.616000
vt 0.784000 -0.616000
vt 0.759000 -0.616000
vt 0.784000 -0.616000
vt 0.759000 -0.616000
vt 0.759000 -0.612435
vt 0.784000 -0.612435
vt 0.784000 -0.616000
vt 0.759000 -0.616000
vt 0.759000 -0.612435
vt 0.784000 -0.612435
vt 0.784000 -0.616000
vt 0.759000 -0.616000
vt 0.759000 -0.612435
vt 0.784000 -0.612435
vt 0.784000 -0.616000
vt 0.759000 -0.612435
vt 0.759000 -0.591000
vt 0.784000 -0.591000
vt 0.784000 -0.612435
vt 0.759000 -0.616000
vt 0.759000 -0.591000
vt 0.784000 -0.591000
vt 0.784000 -0.616000
vt 0.759000 -0.616000
vt 0.759000 -0.591000
vt 0.784000 -0.591000
vt 0.759000 -0.612435
vt 0.759000 -0.591000
vt 0.784000 -0.591000
vt 0.784000 -0.612435
vt 0.759000 -0.591000
vt 0.784000 -0.591000
vt 0.759000 -0.591000
vt 0.784000 -0.591000
vt 0.784000 -0.616000
vt 0.759000 -0.616000
vt 0.784000 -0.616000
vt 0.759000 -0.616000
vt 0.784000 -0.616000
vt 0.759000 -0.616000
vt 0.759000 -0.612435
vt 0.784000 -0.612435
vt 0.784000 -0.616000
vt 0.759000 -0.616000
vt 0.759000 -0.612435
vt 0.784000 -0.612435
vt 0.784000 -0.616000
vt 0.759000 -0.616000
vt 0.759000 -0.612435
vt 0.784000 -0.612435
vt 0.784000 -0.616000
vt 0.759000 -0.612435
vt 0.759000 -0.591000
vt 0.784000 -0.591000
vt 0.784000 -0.612435
vt 0.759000 -0.616000
vt 0.759000 -0.591000
vt 0.784000 -0.591000
vt 0.784000 -0.616000
vt 0.759000 -0.616000
vt 0.759000 -0.591000
vt 0.784000 -0.591000
vt 0.759000 -0.612435
vt 0.759000 -0.591000
vt 0.784000 -0.591000
vt 0.784000 -0.612435
vt 0.759000 -0.591000
vt 0.784000 -0.591000
vt 0.759000 -0.591000
vt 0.784000 -0.591000
vt 0.784000 -0.616000
vt 0.759000 -0.616000
vt 0.784000 -0.616000
vt 0.759000 -0.616000
vt 0.784000 -0.616000
vt 0.759000 -0.616000
vt 0.759000 -0.612435
vt 0.784000 -0.612435
vt 0.784000 -0.616000
vt 0.759000 -0.616000
vt 0.759000 -0.612435
vt 0.784000 -0.612435
vt 0.784000 -0.616000
vt 0.759000 -0.616000
vt 0.759000 -0.612435
vt 0.784000 -0.612435
vt 0.784000 -0.616000
vt 0.759000 -0.612435
vt 0.759000 -0.591000
vt 0.784000 -0.591000
vt 0.784000 -0.612435
vt 0.759000 -0.616000
vt 0.759000 -0.591000
vt 0.784000 -0.591000
vt 0.784000 -0.616000
vt 0.759000 -0.616000
vt 0.759000 -0.591000
vt 0.784000 -0.591000
vt 0.759000 -0.612435
vt 0.759000 -0.591000
vt 0.784000 -0.591000
vt 0.784000 -0.612435
vt 0.759000 -0.591000
vt 0.784000 -0.591000
vt 0.759000 -0.591000
vt 0.784000 -0.591000
vt 0.784000 -0.616000
vt 0.759000 -0.616000
vt 0.784000 -0.616000
vt 0.759000 -0.616000
vt 0.784000 -0.616000
vt 0.759000 -0.616000
vt 0.759000 -0.612435
vt 0.784000 -0.612435
vt 0.784000 -0.616000
vt 0.759000 -0.616000
vt 0.759000 -0.612435
vt 0.784000 -0.612435
vt 0.784000 -0.616000
vt 0.759000 -0.616000
vt 0.759000 -0.612435
vt 0.784000 -0.612435
vt 0.784000 -0.616000
vt 0.759000 -0.612435
vt 0.759000 -0.591000
vt 0.784000 -0.591000
vt 0.784000 -0.612435
vt 0.759000 -0.616000
vt 0.759000 -0.591000
vt 0.784000 -0.591000
vt 0.784000 -0.616000
vt 0.759000 -0.616000
vt 0.759000 -0.591000
vt 0.784000 -0.591000
vt 0.759000 -0.612435
vt 0.759000 -0.591000
vt 0.784000 -0.591000
vt 0.784000 -0.612435
vt 0.759000 -0.591000
vt 0.784000 -0.591000
vt 0.759000 -0.591000
vt 0.784000 -0.591000
vt 0.784000 -0.616000
vt 0.759000 -0.616000
vt 0.784000 -0.616000
vt 0.759000 -0.616000
vt 0.784000 -0.616000
vt 0.759000 -0.616000
vt 0.759000 -0.612435
vt 0.784000 -0.612435
vt 0.784000 -0.616000
vt 0.759000 -0.616000
vt 0.759000 -0.612435
vt 0.784000 -0.612435
vt 0.784000 -0.616000
vt 0.759000 -0.616000
vt 0.759000 -0.612435
vt 0.784000 -0.612435
vt 0.784000 -0.616000
vt 0.759000 -0.612435
vt 0.759000 -0.591000
vt 0.784000 -0.591000
vt 0.784000 -0.612435
vt 0.759000 -0.616000
vt 0.759000 -0.591000
vt 0.784000 -0.591000
vt 0.784000 -0.616000
vt 0.759000 -0.616000
vt 0.759000 -0.591000
vt 0.784000 -0.591000
vt 0.759000 -0.612435
vt 0.759000 -0.591000
vt 0.784000 -0.591000
vt 0.784000 -0.612435
vt 0.759000 -0.591000
vt 0.784000 -0.591000
vt 0.759000 -0.591000
vt 0.784000 -0.591000
vt 0.784000 -0.616000
vt 0.759000 -0.616000
vt 0.784000 -0.616000
vt 0.759000 -0.616000
vt 0.784000 -0.616000
vt 0.759000 -0.616000
vt 0.759000 -0.612435
vt 0.784000 -0.612435
vt 0.784000 -0.616000
vt 0.759000 -0.616000
vt 0.759000 -0.612435
vt 0.784000 -0.612435
vt 0.784000 -0.616000
vt 0.759000 -0.616000
vt 0.759000 -0.612435
vt 0.784000 -0.612435
vt 0.784000 -0.616000
vt 0.759000 -0.612435
vt 0.759000 -0.591000
vt 0.784000 -0.591000
vt 0.784000 -0.612435
vt 0.759000 -0.616000
vt 0.759000 -0.591000
vt 0.784000 -0.591000
vt 0.784000 -0.616000
vt 0.759000 -0.616000
vt 0.759000 -0.591000
vt 0.784000 -0.591000
vt 0.759000 -0.612435
vt 0.759000 -0.591000
vt 0.784000 -0.591000
vt 0.784000 -0.612435
vt 0.759000 -0.591000
vt 0.784000 -0.591000
vt 0.759000 -0.591000
vt 0.784000 -0.591000
vt 0.784000 -0.616000
vt 0.759000 -0.616000
vt 0.784000 -0.616000
vt 0.759000 -0.616000
vt 0.784000 -0.616000
vt 0.759000 -0.616000
vt 0.759000 -0.612435
vt 0.784000 -0.612435
vt 0.784000 -0.616000
vt 0.759000 -0.616000
vt 0.759000 -0.612435
vt 0.784000 -0.612435
vt 0.784000 -0.616000
vt 0.759000 -0.616000
vt 0.759000 -0.612435
vt 0.784000 -0.612435
vt 0.784000 -0.616000
vt 0.759000 -0.612435
vt 0.759000 -0.591000
vt 0.784000 -0.591000
vt 0.784000 -0.612435
vt 0.759000 -0.616000
vt 0.759000 -0.591000
vt 0.784000 -0.591000
vt 0.784000 -0.616000
vt 0.759000 -0.616000
vt 0.759000 -0.591000
vt 0.784000 -0.591000
vt 0.759000 -0.612435
vt 0.759000 -0.591000
vt 0.784000 -0.591000
vt 0.784000 -0.612435
vt 0.759000 -0.591000
vt 0.784000 -0.591000
vt 0.759000 -0.591000
vt 0.784000 -0.591000
vt 0.784000 -0.616000
vt 0.759000 -0.616000
vt 0.784000 -0.616000
vt 0.759000 -0.616000
vt 0.784000 -0.616000
vt 0.759000 -0.616000
vt 0.759000 -0.612435
vt 0.784000 -0.612435
vt 0.784000 -0.616000
vt 0.759000 -0.616000
vt 0.759000 -0.612435
vt 0.784000 -0.612435
vt 0.784000 -0.616000
vt 0.759000 -0.616000
vt 0.759000 -0.612435
vt 0.784000 -0.612435
vt 0.784000 -0.616000
vt 0.759000 -0.612435
vt 0.759000 -0.591000
vt 0.784000 -0.591000
vt 0.784000 -0.612435
vt 0.759000 -0.616000
vt 0.759000 -0.591000
vt 0.784000 -0.591000
vt 0.784000 -0.616000
vt 0.759000 -0.616000
vt 0.759000 -0.591000
vt 0.784000 -0.591000
vt 0.759000 -0.612435
vt 0.759000 -0.591000
vt 0.784000 -0.591000
vt 0.784000 -0.612435
vt 0.759000 -0.591000
vt 0.784000 -0.591000
vt 0.759000 -0.591000
vt 0.784000 -0.591000
vt 0.784000 -0.616000
vt 0.759000 -0.616000
vt 0.784000 -0.616000
vt 0.759000 -0.616000
vt 0.784000 -0.616000
vn 0.0000 -1.0000 0.0000
vn -0.9849 -0.0000 0.1732
vn -0.0000 1.0000 -0.0000
vn 0.9994 -0.0006 -0.0341
vn 0.0000 0.0000 1.0000
vn -0.0000 -0.0000 -1.0000
vn -0.0007 -1.0000 0.0009
vn -0.9993 0.0005 -0.0375
vn 0.0007 1.0000 -0.0009
vn 0.9849 0.0000 0.1732
vn -0.0007 -0.9999 0.0158
vn -0.9907 0.0008 0.1364
vn 0.0007 0.9998 0.0204
vn 0.9918 -0.0006 0.1279
vn -0.8658 -0.0000 -0.5004
vn 0.7875 -0.0002 0.6163
vn -0.6428 0.0000 0.7660
vn 0.6428 0.0000 -0.7660
vn -0.0012 -1.0000 0.0011
vn -0.7414 0.0002 -0.6711
vn 0.0012 1.0000 -0.0011
vn 0.6431 0.0000 0.7658
vn -0.0092 -0.9999 0.0106
vn -0.8465 0.0004 -0.5324
vn -0.0140 0.9998 0.0171
vn 0.6775 -0.0001 0.7355
vn -0.3416 0.0000 -0.9398
vn 0.2072 0.0003 0.9783
vn -0.9848 0.0000 0.1737
vn 0.9848 0.0000 -0.1736
vn -0.0014 -1.0000 0.0006
vn -0.1366 -0.0003 -0.9906
vn 0.0014 1.0000 -0.0006
vn 0.0005 0.0000 1.0000
vn -0.0139 -0.9999 0.0028
vn -0.3062 -0.0002 -0.9520
vn -0.0217 0.9998 0.0035
vn 0.0462 0.0004 0.9989
vn 0.3424 0.0000 -0.9395
vn -0.4701 0.0006 0.8826
vn -0.8660 0.0000 -0.5000
vn 0.8660 0.0000 0.5000
vn -0.0010 -1.0000 0.0002
vn 0.5321 -0.0006 -0.8467
vn 0.0010 1.0000 -0.0002
vn -0.6424 0.0000 0.7663
vn -0.0144 -0.9999 -0.0075
vn 0.3773 -0.0007 -0.9261
vn -0.0169 0.9998 -0.0107
vn -0.6068 0.0008 0.7949
vn 0.8663 0.0000 -0.4996
vn -0.9275 0.0006 0.3739
vn -0.3420 0.0000 -0.9397
vn 0.3420 0.0000 0.9397
vn -0.0006 -1.0000 0.0006
vn 0.9519 -0.0006 -0.3065
vn 0.0006 1.0000 -0.0006
vn -0.9847 -0.0000 0.1741
vn -0.0073 -0.9998 -0.0177
vn 0.8843 -0.0008 -0.4669
vn -0.0050 0.9999 -0.0163
vn -0.9757 0.0008 0.2189
vn 0.9847 0.0000 0.1741
vn -0.9508 0.0004 -0.3097
vn 0.3420 0.0000 -0.9397
vn -0.3420 0.0000 0.9397
vn -0.0009 -1.0000 0.0011
vn 0.9262 -0.0004 0.3770
vn 0.0009 1.0000 -0.0011
vn -0.8663 -0.0000 -0.4996
vn 0.0069 -0.9998 -0.0204
vn 0.9775 -0.0006 0.2108
vn 0.0055 0.9999 -0.0136
vn -0.8882 0.0004 -0.4595
vn 0.6424 0.0000 0.7663
vn -0.5293 -0.0000 -0.8485
vn 0.8660 0.0000 -0.5000
vn -0.8660 -0.0000 0.5000
vn -0.0014 -1.0000 0.0009
vn 0.4671 0.0001 0.8842
vn 0.0014 1.0000 -0.0009
vn -0.3424 0.0000 -0.9395
vn 0.0194 -0.9998 -0.0111
vn 0.6134 -0.0001 0.7898
vn 0.0120 0.9999 -0.0070
vn -0.3851 -0.0002 -0.9229
vn -0.0005 -0.0000 1.0000
vn 0.1400 -0.0004 -0.9902
vn 0.9848 0.0000 0.1737
vn -0.9848 -0.0000 -0.1736
vn -0.0013 -1.0000 0.0003
vn -0.2105 0.0005 0.9776
vn 0.0013 1.0000 -0.0003
vn 0.3416 -0.0000 -0.9398
vn 0.0208 -0.9998 0.0043
vn -0.0377 0.0005 0.9993
vn 0.0149 0.9999 0.0020
vn 0.2982 -0.0007 -0.9545
vn -0.6431 -0.0000 0.7658
vn 0.7437 -0.0007 -0.6685
vn 0.6428 0.0000 0.7660
vn -0.6428 -0.0000 -0.7660
vn -0.0007 -1.0000 0.0004
vn -0.7896 0.0007 0.6136
vn 0.0007 1.0000 -0.0004
vn 0.8658 0.0000 -0.5004
vn 0.0113 -0.9998 0.0148
vn -0.6712 0.0008 0.7413
vn 0.0119 0.9998 0.0129
vn 0.8420 -0.0009 -0.5395
usemtl tailPropeller
s off
f 1/1/1 2/2/1 3/3/1 4/4/1
f 5/5/2 6/6/2 7/7/2 8/8/2
f 8/9/3 7/10/3 9/11/3 10/12/3
f 9/13/4 11/14/4 12/15/4 13/16/4
f 14/17/5 15/18/5 16/19/5 17/20/5
f 10/21/6 18/22/6 5/23/6 8/8/6
f 13/24/7 12/25/7 19/26/7 6/27/7
f 6/6/8 19/28/8 20/29/8 7/7/8
f 7/10/9 20/30/9 11/31/9 9/11/9
f 13/16/10 18/32/10 10/21/10 9/13/10
f 12/33/11 14/17/11 17/20/11 19/34/11
f 19/34/12 17/20/12 16/19/12 20/29/12
f 20/29/13 16/19/13 15/18/13 11/14/13
f 11/14/14 15/18/14 14/17/14 12/33/14
f 18/35/6 1/1/6 4/4/6 5/36/6
f 5/36/2 4/4/2 3/3/2 6/27/2
f 6/27/5 3/3/5 2/2/5 13/24/5
f 13/24/10 2/2/10 1/1/10 18/35/10
f 21/37/1 22/38/1 23/39/1 24/40/1
f 25/41/15 26/42/15 27/43/15 28/44/15
f 28/45/3 27/46/3 29/47/3 30/48/3
f 29/49/16 31/50/16 32/51/16 33/52/16
f 34/53/17 35/54/17 36/55/17 37/56/17
f 30/57/18 38/58/18 25/59/18 28/44/18
f 33/60/19 32/61/19 39/62/19 26/63/19
f 26/42/20 39/64/20 40/65/20 27/43/20
f 27/46/21 40/66/21 31/67/21 29/47/21
f 33/52/22 38/68/22 30/57/22 29/49/22
f 32/69/23 34/53/23 37/56/23 39/70/23
f 39/70/24 37/56/24 36/55/24 40/65/24
f 40/65/25 36/55/25 35/54/25 31/50/25
f 31/50/26 35/54/26 34/53/26 32/69/26
f 38/71/18 21/37/18 24/40/18 25/72/18
f 25/72/15 24/40/15 23/39/15 26/63/15
f 26/63/17 23/39/17 22/38/17 33/60/17
f 33/60/22 22/38/22 21/37/22 38/71/22
f 41/73/1 42/74/1 43/75/1 44/76/1
f 45/77/27 46/78/27 47/79/27 48/80/27
f 48/81/3 47/82/3 49/83/3 50/84/3
f 49/85/28 51/86/28 52/87/28 53/88/28
f 54/89/29 55/90/29 56/91/29 57/92/29
f 50/93/30 58/94/30 45/95/30 48/80/30
f 53/96/31 52/97/31 59/98/31 46/99/31
f 46/78/32 59/100/32 60/101/32 47/79/32
f 47/82/33 60/102/33 51/103/33 49/83/33
f 53/88/34 58/104/34 50/93/34 49/85/34
f 52/105/35 54/89/35 57/92/35 59/106/35
f 59/106/36 57/92/36 56/91/36 60/101/36
f 60/101/37 56/91/37 55/90/37 51/86/37
f 51/86/38 55/90/38 54/89/38 52/105/38
f 58/107/30 41/73/30 44/76/30 45/108/30
f 45/108/27 44/76/27 43/75/27 46/99/27
f 46/99/29 43/75/29 42/74/29 53/96/29
f 53/96/34 42/74/34 41/73/34 58/107/34
f 61/109/1 62/110/1 63/111/1 64/112/1
f 65/113/39 66/114/39 67/115/39 68/116/39
f 68/117/3 67/118/3 69/119/3 70/120/3
f 69/121/40 71/122/40 72/123/40 73/124/40
f 74/125/41 75/126/41 76/127/41 77/128/41
f 70/129/42 78/130/42 65/131/42 68/116/42
f 73/132/43 72/133/43 79/134/43 66/135/43
f 66/114/44 79/136/44 80/137/44 67/115/44
f 67/118/45 80/138/45 71/139/45 69/119/45
f 73/124/46 78/140/46 70/129/46 69/121/46
f 72/141/47 74/125/47 77/128/47 79/142/47
f 79/142/48 77/128/48 76/127/48 80/137/48
f 80/137/49 76/127/49 75/126/49 71/122/49
f 71/122/50 75/126/50 74/125/50 72/141/50
f 78/143/42 61/109/42 64/112/42 65/144/42
f 65/144/39 64/112/39 63/111/39 66/135/39
f 66/135/41 63/111/41 62/110/41 73/132/41
f 73/132/46 62/110/46 61/109/46 78/143/46
f 81/145/1 82/146/1 83/147/1 84/148/1
f 85/149/51 86/150/51 87/151/51 88/152/51
f 88/153/3 87/154/3 89/155/3 90/156/3
f 89/157/52 91/158/52 92/159/52 93/160/52
f 94/161/53 95/162/53 96/163/53 97/164/53
f 90/165/54 98/166/54 85/167/54 88/152/54
f 93/168/55 92/169/55 99/170/55 86/171/55
f 86/150/56 99/172/56 100/173/56 87/151/56
f 87/154/57 100/174/57 91/175/57 89/155/57
f 93/160/58 98/176/58 90/165/58 89/157/58
f 92/177/59 94/161/59 97/164/59 99/178/59
f 99/178/60 97/164/60 96/163/60 100/173/60
f 100/173/61 96/163/61 95/162/61 91/158/61
f 91/158/62 95/162/62 94/161/62 92/177/62
f 98/179/54 81/145/54 84/148/54 85/180/54
f 85/180/51 84/148/51 83/147/51 86/171/51
f 86/171/53 83/147/53 82/146/53 93/168/53
f 93/168/58 82/146/58 81/145/58 98/179/58
f 101/181/1 102/182/1 103/183/1 104/184/1
f 105/185/63 106/186/63 107/187/63 108/188/63
f 108/189/3 107/190/3 109/191/3 110/192/3
f 109/193/64 111/194/64 112/195/64 113/196/64
f 114/197/65 115/198/65 116/199/65 117/200/65
f 110/201/66 118/202/66 105/203/66 108/188/66
f 113/204/67 112/205/67 119/206/67 106/207/67
f 106/186/68 119/208/68 120/209/68 107/187/68
f 107/190/69 120/210/69 111/211/69 109/191/69
f 113/196/70 118/212/70 110/201/70 109/193/70
f 112/213/71 114/197/71 117/200/71 119/214/71
f 119/214/72 117/200/72 116/199/72 120/209/72
f 120/209/73 116/199/73 115/198/73 111/194/73
f 111/194/74 115/198/74 114/197/74 112/213/74
f 118/215/66 101/181/66 104/184/66 105/216/66
f 105/216/63 104/184/63 103/183/63 106/207/63
f 106/207/65 103/183/65 102/182/65 113/204/65
f 113/204/70 102/182/70 101/181/70 118/215/70
f 121/217/1 122/218/1 123/219/1 124/220/1
f 125/221/75 126/222/75 127/223/75 128/224/75
f 128/225/3 127/226/3 129/227/3 130/228/3
f 129/229/76 131/230/76 132/231/76 133/232/76
f 134/233/77 135/234/77 136/235/77 137/236/77
f 130/237/78 138/238/78 125/239/78 128/224/78
f 133/240/79 132/241/79 139/242/79 126/243/79
f 126/222/80 139/244/80 140/245/80 127/223/80
f 127/226/81 140/246/81 131/247/81 129/227/81
f 133/232/82 138/248/82 130/237/82 129/229/82
f 132/249/83 134/233/83 137/236/83 139/250/83
f 139/250/84 137/236/84 136/235/84 140/245/84
f 140/245/85 136/235/85 135/234/85 131/230/85
f 131/230/86 135/234/86 134/233/86 132/249/86
f 138/251/78 121/217/78 124/220/78 125/252/78
f 125/252/75 124/220/75 123/219/75 126/243/75
f 126/243/77 123/219/77 122/218/77 133/240/77
f 133/240/82 122/218/82 121/217/82 138/251/82
f 141/253/1 142/254/1 143/255/1 144/256/1
f 145/257/87 146/258/87 147/259/87 148/260/87
f 148/261/3 147/262/3 149/263/3 150/264/3
f 149/265/88 151/266/88 152/267/88 153/268/88
f 154/269/89 155/270/89 156/271/89 157/272/89
f 150/273/90 158/274/90 145/275/90 148/260/90
f 153/276/91 152/277/91 159/278/91 146/279/91
f 146/258/92 159/280/92 160/281/92 147/259/92
f 147/262/93 160/282/93 151/283/93 149/263/93
f 153/268/94 158/284/94 150/273/94 149/265/94
f 152/285/95 154/269/95 157/272/95 159/286/95
f 159/286/96 157/272/96 156/271/96 160/281/96
f 160/281/97 156/271/97 155/270/97 151/266/97
f 151/266/98 155/270/98 154/269/98 152/285/98
f 158/287/90 141/253/90 144/256/90 145/288/90
f 145/288/87 144/256/87 143/255/87 146/279/87
f 146/279/89 143/255/89 142/254/89 153/276/89
f 153/276/94 142/254/94 141/253/94 158/287/94
f 161/289/1 162/290/1 163/291/1 164/292/1
f 165/293/99 166/294/99 167/295/99 168/296/99
f 168/297/3 167/298/3 169/299/3 170/300/3
f 169/301/100 171/302/100 172/303/100 173/304/100
f 174/305/101 175/306/101 176/307/101 177/308/101
f 170/309/102 178/310/102 165/311/102 168/296/102
f 173/312/103 172/313/103 179/314/103 166/315/103
f 166/294/104 179/316/104 180/317/104 167/295/104
f 167/298/105 180/318/105 171/319/105 169/299/105
f 173/304/106 178/320/106 170/309/106 169/301/106
f 172/321/107 174/305/107 177/308/107 179/322/107
f 179/322/108 177/308/108 176/307/108 180/317/108
f 180/317/109 176/307/109 175/306/109 171/302/109
f 171/302/110 175/306/110 174/305/110 172/321/110
f 178/323/102 161/289/102 164/292/102 165/324/102
f 165/324/99 164/292/99 163/291/99 166/315/99
f 166/315/101 163/291/101 162/290/101 173/312/101
f 173/312/106 162/290/106 161/289/106 178/323/106
